<?xml version="1.0" encoding="UTF-8" standalone="no"?>
<svg
   version="1.1"
   viewBox="0.0 0.0 480.0 480.0"
   fill="none"
   stroke="none"
   stroke-linecap="square"
   stroke-miterlimit="10"
   id="svg5"
   sodipodi:docname="bountee.svg"
   inkscape:version="1.4 (e7c3feb1, 2024-10-09)"
   inkscape:export-filename="bountee.png"
   inkscape:export-xdpi="120"
   inkscape:export-ydpi="120"
   xmlns:inkscape="http://www.inkscape.org/namespaces/inkscape"
   xmlns:sodipodi="http://sodipodi.sourceforge.net/DTD/sodipodi-0.dtd"
   xmlns="http://www.w3.org/2000/svg"
   xmlns:svg="http://www.w3.org/2000/svg">
  <defs
     id="defs5" />
  <sodipodi:namedview
     id="namedview5"
     pagecolor="#ffffff"
     bordercolor="#000000"
     borderopacity="0.25"
     inkscape:showpageshadow="2"
     inkscape:pageopacity="0.0"
     inkscape:pagecheckerboard="0"
     inkscape:deskcolor="#d1d1d1"
     inkscape:zoom="0.80362"
     inkscape:cx="324.78037"
     inkscape:cy="120.70382"
     inkscape:window-width="1920"
     inkscape:window-height="1027"
     inkscape:window-x="0"
     inkscape:window-y="25"
     inkscape:window-maximized="1"
     inkscape:current-layer="svg5" />
  <clipPath
     id="g34913e4909d_0_4.0">
    <path
       d="m0 0l480.0 0l0 480.0l-480.0 0l0 -480.0z"
       clip-rule="nonzero"
       id="path1" />
  </clipPath>
  <g
     clip-path="url(#g34913e4909d_0_4.0)"
     id="g5">
    <path
       fill="#000000"
       fill-opacity="0.0"
       d="m0 0l480.0 0l0 480.0l-480.0 0z"
       fill-rule="evenodd"
       id="path2" />
    <path
       id="path3"
       d="M 80.001953 0 C 35.818289 0 4.9707372e-16 35.818287 0 80.001953 L 0 399.99805 C 0 444.18171 35.818287 480 80.001953 480 L 399.99805 480 C 444.18171 480 480 444.18171 480 399.99805 L 480 80.001953 C 480 58.784208 471.57156 38.434849 456.56836 23.431641 C 441.56513 8.4284296 421.21579 2.3394386e-16 399.99805 0 L 80.001953 0 z M 179.59375 96.380859 L 272.95312 96.568359 C 285.19272 96.703776 297.04167 98.141281 308.5 100.88086 C 319.95833 103.61003 330.11458 107.9069 338.96875 113.77148 C 347.82292 119.62565 354.6875 127.37045 359.5625 137.00586 C 364.44792 146.64128 366.4375 158.49023 365.53125 172.55273 C 364.61458 187.91731 360.1823 200.51628 352.23438 210.34961 C 344.29688 220.17253 334.17708 227.55795 321.875 232.50586 C 318.71031 233.7787 315.48627 234.90914 312.20508 235.90625 C 315.6646 237.11119 318.9617 238.53388 322.0625 240.22461 C 331.51042 245.37044 338.70833 252.63085 343.65625 262.00586 C 348.60417 271.38086 350.61979 282.64128 349.70312 295.78711 C 348.40105 316.09961 342.47396 332.50586 331.92188 345.00586 C 321.38022 357.50586 307.9375 366.62565 291.59375 372.36523 C 275.26042 378.0944 257.84896 380.89127 239.35938 380.75586 L 187.59375 380.75586 L 130.375 380.75586 L 179.59375 96.380859 z M 229 142.27148 L 216.24805 215.7207 L 254.74805 215.83789 C 262.57755 215.65556 270.11917 214.51024 277.34375 212.30273 C 285.21875 209.88607 291.85938 205.91211 297.26562 200.38086 C 302.67188 194.84961 306.08855 187.39648 307.51562 178.02148 C 308.69272 169.16732 307.91147 162.20378 305.17188 157.13086 C 302.44272 152.04753 298.11458 148.36523 292.1875 146.08398 C 286.26042 143.80273 279.26042 142.59961 271.1875 142.47461 L 229 142.27148 z M 209.26172 255.95703 L 195.52148 335.09766 L 241.10938 335.24023 C 249.70312 335.24023 257.7448 333.77669 265.23438 330.84961 C 272.72397 327.92252 279.00522 323.5319 284.07812 317.67773 C 289.16147 311.81315 292.35417 304.32356 293.65625 295.20898 C 294.82292 287.52148 294.4948 280.7819 292.67188 274.99023 C 290.84897 269.19856 287.4948 264.70898 282.60938 261.52148 C 277.73438 258.32356 271.26042 256.5319 263.1875 256.14648 L 209.26172 255.95703 z "
       style="fill:#67c2ce;fill-opacity:1" />
    <path
       fill="#000000"
       fill-opacity="0.0"
       d="m23.829065 -7.2440944l400.6299 0l0 494.48816l-400.6299 0z"
       fill-rule="evenodd"
       id="path4" />
  </g>
</svg>
